<svg xmlns="http://www.w3.org/2000/svg" viewBox="0 0 216.2 32.3"><defs><style>.cls-1{fill:#989898;}</style></defs><g id="레이어_2" data-name="레이어 2"><g id="Layer_1" data-name="Layer 1"><path class="cls-1" d="M1.2,10H0V.1H1.2V4.5H6.3V.1H7.5V10H6.3V5.6H1.2Z"/><path class="cls-1" d="M14.5,7c0,1.3,1.3,1.9,2.6,1.9s2.5-.6,2.5-1.9V.1h1.2V7c0,2.1-1.9,3.1-3.7,3.1s-3.8-1-3.8-3.1V.1h1.2Z"/><path class="cls-1" d="M27.8,10H26.7V.1h1.4L31.2,7l3-6.9h1.5V10H34.5V2.3L31.7,8.7h-1L27.8,2.3Z"/><path class="cls-1" d="M49.1,10H47.9L46.8,6.8H43A30.1,30.1,0,0,0,41.9,10H40.6L44.2.1h1.4ZM46.4,5.7c-.6-1.6-1-2.7-1.5-4.3L43.4,5.7Z"/><path class="cls-1" d="M60.4.1h1.2V10H60.1L55.3,2.2V10H54.1V.1h1.2l5.1,8.2Z"/><path class="cls-1" d="M73.7,3.1c0-2,1.9-3.1,3.8-3.1a3.5,3.5,0,0,1,3.4,2l-1,.5a2.9,2.9,0,0,0-2.5-1.4,2.3,2.3,0,0,0-2.5,2V7c0,1.3,1.3,1.9,2.5,1.9a2.7,2.7,0,0,0,2.5-1.3l1,.5a3.7,3.7,0,0,1-3.5,2c-1.8,0-3.7-1-3.7-3.1Z"/><path class="cls-1" d="M87.3,4.5h4.8V5.6H87.3V8.8h5.2V10H86.2V.1h6.3V1.3H87.3Z"/><path class="cls-1" d="M104.3.1h1.2V10H104L99.2,2.2V10H98V.1h1.2l5.1,8.2Z"/><path class="cls-1" d="M114.9,1.3V10h-1.2V1.3h-3.1V.1H118V1.3Z"/><path class="cls-1" d="M124.3,4.5H129V5.6h-4.7V8.8h5.1V10h-6.3V.1h6.3V1.3h-5.1Z"/><path class="cls-1" d="M137.6,6h-1.5v4h-1.2V.1h3.8c1.9,0,3.3.9,3.3,3a2.6,2.6,0,0,1-2.9,2.8l3.1,4.1h-1.4Zm1.1-1.1c1.3,0,2.2-.5,2.2-1.8s-.9-1.8-2.2-1.8h-2.6V4.9Z"/><path class="cls-1" d="M148.6,4.5h4.7V5.6h-4.7V8.8h5.1V10h-6.3V.1h6.3V1.3h-5.1Z"/><path class="cls-1" d="M162.6.1c1.8,0,3.7.9,3.7,3V7c0,2.1-1.9,3-3.7,3h-3.4V.1Zm0,8.7c1.2,0,2.5-.5,2.5-1.8V3.1c0-1.3-1.3-1.8-2.5-1.8h-2.2V8.8Z"/><path class="cls-1" d="M3.3,22.3c1.9,0,3.8.9,3.8,3v3.9c0,2.1-1.9,3-3.8,3H0V22.3Zm0,8.7c1.3,0,2.6-.5,2.6-1.8V25.3c0-1.3-1.3-1.8-2.6-1.8H1.2V31Z"/><path class="cls-1" d="M13.9,26.7h4.7v1.1H13.9V31H19v1.2H12.7V22.3H19v1.2H13.9Z"/><path class="cls-1" d="M27.7,26.5c1.7.3,3.6.7,3.5,3.1s-1.9,2.7-3.6,2.7a4,4,0,0,1-3.7-2.1l1.1-.5a2.8,2.8,0,0,0,2.6,1.5c1.2,0,2.3-.6,2.4-1.6s-1.2-1.7-2.6-2-3.2-.8-3.2-2.8,1.7-2.6,3.4-2.6a3.8,3.8,0,0,1,3.6,2.1l-1.1.4a2.7,2.7,0,0,0-2.5-1.4c-1.1,0-2.2.5-2.3,1.6S26.4,26.3,27.7,26.5Z"/><path class="cls-1" d="M37.8,32.2H36.7V22.3h1.1Z"/><path class="cls-1" d="M43.5,25.3c0-2.1,1.8-3.1,3.7-3.1a3.7,3.7,0,0,1,3.4,2l-1,.5a2.7,2.7,0,0,0-2.4-1.4c-1.3,0-2.6.7-2.6,1.9v4c0,1.3,1.3,1.9,2.6,1.9s2.6-.6,2.6-1.9v-1H46.9V27.1h4v2.1c0,2.1-1.8,3.1-3.7,3.1s-3.7-1-3.7-3.1Z"/><path class="cls-1" d="M62.7,22.3h1.2v9.9H62.4l-4.8-7.8v7.8H56.4V22.3h1.3l5,8.2Z"/><path class="cls-1" d="M80.8,29l.7-1.2,1,.5-.9,1.5,1.6,1.9H81.7l-.8-.9a3.5,3.5,0,0,1-2.8,1.5,2.8,2.8,0,0,1-3-2.8,3.3,3.3,0,0,1,2-2.9,3.5,3.5,0,0,1-1-2.2,2.3,2.3,0,0,1,2.4-2.2,2.2,2.2,0,0,1,2.3,2.1c0,1.3-.9,1.9-1.9,2.5Zm-3-1.7a3,3,0,0,0-1.6,2.2,1.8,1.8,0,0,0,2,1.7,2.5,2.5,0,0,0,2-1.2Zm-.6-2.9a2.6,2.6,0,0,0,.9,1.6c.7-.3,1.6-.8,1.6-1.6a1.2,1.2,0,0,0-1.2-1.2A1.2,1.2,0,0,0,77.2,24.4Z"/><path class="cls-1" d="M95.2,26.7H100v1.1H95.2V31h5.2v1.2H94.1V22.3h6.3v1.2H95.2Z"/><path class="cls-1" d="M112.2,22.3h1.1v9.9h-1.4L107,24.4v7.8h-1.1V22.3h1.2l5.1,8.2Z"/><path class="cls-1" d="M119,25.3c0-2.1,1.8-3.1,3.7-3.1a3.9,3.9,0,0,1,3.5,2l-1.1.5a2.6,2.6,0,0,0-2.4-1.4c-1.3,0-2.6.7-2.6,1.9v4c0,1.3,1.3,1.9,2.6,1.9s2.6-.6,2.6-1.9v-1h-2.9V27.1h4v2.1c0,2.1-1.8,3.1-3.7,3.1s-3.7-1-3.7-3.1Z"/><path class="cls-1" d="M133.1,32.2h-1.2V22.3h1.2Z"/><path class="cls-1" d="M145.3,22.3h1.2v9.9H145l-4.8-7.8v7.8H139V22.3h1.3l5,8.2Z"/><path class="cls-1" d="M153.6,26.7h4.7v1.1h-4.7V31h5.1v1.2h-6.3V22.3h6.3v1.2h-5.1Z"/><path class="cls-1" d="M165.4,26.7h4.8v1.1h-4.8V31h5.2v1.2h-6.3V22.3h6.3v1.2h-5.2Z"/><path class="cls-1" d="M178.7,28.2h-1.5v4H176V22.3h3.8c1.9,0,3.3.9,3.4,3a2.7,2.7,0,0,1-3,2.8l3.1,4.1h-1.4Zm1.1-1.1c1.3,0,2.2-.5,2.2-1.8s-.9-1.8-2.2-1.8h-2.6v3.6Z"/><path class="cls-1" d="M189.7,32.2h-1.2V22.3h1.2Z"/><path class="cls-1" d="M201.9,22.3h1.2v9.9h-1.5l-4.8-7.8v7.8h-1.2V22.3h1.3l5,8.2Z"/><path class="cls-1" d="M208.7,25.3c0-2.1,1.9-3.1,3.8-3.1a3.7,3.7,0,0,1,3.4,2l-1,.5a2.9,2.9,0,0,0-2.5-1.4c-1.2,0-2.5.7-2.5,1.9v4c0,1.3,1.3,1.9,2.6,1.9s2.5-.6,2.5-1.9v-1h-2.9V27.1h4.1v2.1c0,2.1-1.9,3.1-3.7,3.1s-3.8-1-3.8-3.1Z"/></g></g></svg>