<svg xmlns="http://www.w3.org/2000/svg" viewBox="0 0 490.5 81.8"><defs><style>.cls-1,.cls-2,.cls-3{fill:#999;}.cls-2{fill-rule:evenodd;}.cls-3{stroke:#fff;stroke-width:0.5px;}</style></defs><g id="레이어_2" data-name="레이어 2"><g id="Layer_1" data-name="Layer 1"><path class="cls-1" d="M109.3,35h-4.2V4.2h4.2Z"/><path class="cls-1" d="M135.8,35H132V21.2a7.3,7.3,0,0,0-1-4.4c-.7-1-2-1.5-3.8-1.5l-1.8.3a5.6,5.6,0,0,0-2,1.1,6.6,6.6,0,0,0-1.5,2.3,9.9,9.9,0,0,0-.6,3.7V35h-3.8V12.5h3.6v3.2h.1l.8-1.1,1.4-1.3a9.3,9.3,0,0,1,2-1,6.6,6.6,0,0,1,2.5-.4,12.4,12.4,0,0,1,2.7.3,6.2,6.2,0,0,1,2.6,1.2,6.5,6.5,0,0,1,1.9,2.4,8.8,8.8,0,0,1,.7,3.9Z"/><path class="cls-1" d="M147.6,15.7V35h-3.7V15.7h-3.1V12.5h3.1V8.7a4.6,4.6,0,0,1,1.5-3.8,6.7,6.7,0,0,1,4.3-1.2h1.7V7.2h-1.5a2.3,2.3,0,0,0-1.8.6,3.7,3.7,0,0,0-.5,2v2.8h3.8v3.2Z"/><path class="cls-1" d="M155.1,23.7a15.9,15.9,0,0,1,.6-4.3,15,15,0,0,1,1.9-3.8,10.9,10.9,0,0,1,3.3-2.7,9.5,9.5,0,0,1,4.6-1,9.6,9.6,0,0,1,4.7,1,9.4,9.4,0,0,1,3.2,2.7,12.5,12.5,0,0,1,2,3.8,15.9,15.9,0,0,1,.6,4.3,15.4,15.4,0,0,1-.6,4.3,13.1,13.1,0,0,1-2,3.9,9.4,9.4,0,0,1-3.2,2.7,10.9,10.9,0,0,1-4.7,1,10.8,10.8,0,0,1-4.6-1,10.9,10.9,0,0,1-3.3-2.7,15.7,15.7,0,0,1-1.9-3.9A15.4,15.4,0,0,1,155.1,23.7Zm3.9,0a13,13,0,0,0,.3,2.6,11.5,11.5,0,0,0,.9,2.8,7.4,7.4,0,0,0,2,2.3,5.8,5.8,0,0,0,3.3.9,5.9,5.9,0,0,0,3.4-.9,6,6,0,0,0,1.9-2.3,8.5,8.5,0,0,0,1-2.8,13,13,0,0,0,.3-2.6,13.8,13.8,0,0,0-.3-2.6,10.5,10.5,0,0,0-1-2.8,5.7,5.7,0,0,0-1.9-2.2,5.9,5.9,0,0,0-3.4-.9,5.8,5.8,0,0,0-3.3.9,7,7,0,0,0-2,2.2,15.2,15.2,0,0,0-.9,2.8A13.8,13.8,0,0,0,159,23.7Z"/><path class="cls-1" d="M186.2,35h-3.8V12.5H186v3.8h.1a9.4,9.4,0,0,1,2.6-3.2,5.7,5.7,0,0,1,3.7-1.2h1v3.9h-1.5a5.9,5.9,0,0,0-2.3.5,4.6,4.6,0,0,0-1.8,1.3,7.6,7.6,0,0,0-1.2,1.9,6.2,6.2,0,0,0-.4,2.3Z"/><path class="cls-1" d="M198.3,12.5h3.6v3.2h.1l.8-1.1a8,8,0,0,1,1.3-1.3,9.3,9.3,0,0,1,2-1,7.1,7.1,0,0,1,2.6-.4,6.8,6.8,0,0,1,2.6.4,6.9,6.9,0,0,1,1.7,1,4.3,4.3,0,0,1,1.1,1.2,4.4,4.4,0,0,0,.6,1l1.4-1.4a5.3,5.3,0,0,1,1.4-1.2l1.8-.7a8,8,0,0,1,2.3-.3l2.1.3a6.5,6.5,0,0,1,2.2,1.1,5.5,5.5,0,0,1,1.9,2.3,8.6,8.6,0,0,1,.7,3.8V35h-3.8V20.5a7.2,7.2,0,0,0-.8-3.8,3.7,3.7,0,0,0-3.3-1.4,4.2,4.2,0,0,0-2.2.5,5.1,5.1,0,0,0-1.6,1.3,4.9,4.9,0,0,0-1.1,2,5.4,5.4,0,0,0-.4,2.2V35h-3.8V19.4a7.1,7.1,0,0,0-.1-1.4,3.1,3.1,0,0,0-.6-1.3,2.7,2.7,0,0,0-1.1-1,2.9,2.9,0,0,0-1.7-.4l-1.8.3a5.6,5.6,0,0,0-2,1.1,6.6,6.6,0,0,0-1.5,2.3,9.9,9.9,0,0,0-.6,3.7V35h-3.8Z"/><path class="cls-1" d="M235.8,19.4a9.1,9.1,0,0,1,.7-3.5,7.1,7.1,0,0,1,1.9-2.3,8.6,8.6,0,0,1,2.9-1.3,14.8,14.8,0,0,1,3.8-.4h1.2l1.7.2,1.9.7a4.5,4.5,0,0,1,1.7,1.1,4.5,4.5,0,0,1,1.3,1.7,6.2,6.2,0,0,1,.5,2.5V31.1c0,.9.4,1.3,1.2,1.3h.6l.7-.2V35l-1,.3h-1.1a5.6,5.6,0,0,1-2-.3,2.5,2.5,0,0,1-1.2-.8,2,2,0,0,1-.6-1.1,5,5,0,0,1-.2-1.2l-1.2,1.2a10.4,10.4,0,0,1-1.7,1.2,9.2,9.2,0,0,1-2.3.9,12.3,12.3,0,0,1-2.9.3,8.2,8.2,0,0,1-2.8-.4,8.8,8.8,0,0,1-2.3-1.4,4.8,4.8,0,0,1-1.4-2,5.9,5.9,0,0,1-.5-2.7,5.9,5.9,0,0,1,.2-1.7,5.8,5.8,0,0,1,.8-2.2,6.5,6.5,0,0,1,2.1-1.9,8.5,8.5,0,0,1,3.7-1.2l6.2-.8h.7l.6-.4a1.6,1.6,0,0,0,.5-.8,4.4,4.4,0,0,0,.2-1.3c0-2.5-1.8-3.7-5.3-3.7a8.9,8.9,0,0,0-2.6.4,5.8,5.8,0,0,0-1.5,1.1,5.1,5.1,0,0,0-.7,1.5,3.5,3.5,0,0,0-.3,1.4Zm13.8,4.1a1.5,1.5,0,0,1-.6.4l-1,.3-1.8.3a15.5,15.5,0,0,1-2.8.4l-1.5.3a4.4,4.4,0,0,0-1.6.6,4,4,0,0,0-1.2,1,2.7,2.7,0,0,0-.5,1.8,4.4,4.4,0,0,0,.9,2.9,4.6,4.6,0,0,0,3.1,1,7.5,7.5,0,0,0,2.6-.4,9,9,0,0,0,2.2-1.1,6.4,6.4,0,0,0,1.6-1.7,3.7,3.7,0,0,0,.6-2.1Z"/><path class="cls-1" d="M265.9,15.7V30.3a3,3,0,0,0,.2,1l.6.5.8.2h2v3l-1.8.2h-1.1a5.3,5.3,0,0,1-2.3-.4,3.2,3.2,0,0,1-1.3-1,2.6,2.6,0,0,1-.7-1.5,11.1,11.1,0,0,1-.2-1.9V15.7H259V12.5h3.1V6.3h3.8v6.2h3.6v3.2Z"/><path class="cls-1" d="M275.3,8.5V4.2h3.8V8.5ZM279.1,35h-3.8V12.5h3.8Z"/><path class="cls-1" d="M285.4,23.7a16.1,16.1,0,0,1,.7-4.3,10.5,10.5,0,0,1,1.9-3.8,9.4,9.4,0,0,1,3.2-2.7,9.9,9.9,0,0,1,4.7-1,9.5,9.5,0,0,1,4.6,1,10.9,10.9,0,0,1,3.3,2.7,12.3,12.3,0,0,1,1.9,3.8,15.9,15.9,0,0,1,.6,4.3,15.4,15.4,0,0,1-.6,4.3,12.9,12.9,0,0,1-1.9,3.9,10.9,10.9,0,0,1-3.3,2.7,10.8,10.8,0,0,1-4.6,1,11.2,11.2,0,0,1-4.7-1,9.4,9.4,0,0,1-3.2-2.7,10.9,10.9,0,0,1-1.9-3.9A15.5,15.5,0,0,1,285.4,23.7Zm4,0a12.3,12.3,0,0,0,.2,2.6,8.5,8.5,0,0,0,1,2.8,6.3,6.3,0,0,0,2,2.3,5.4,5.4,0,0,0,3.3.9,5.8,5.8,0,0,0,3.3-.9,7.4,7.4,0,0,0,2-2.3,6.6,6.6,0,0,0,.9-2.8,13,13,0,0,0,.3-2.6,13.8,13.8,0,0,0-.3-2.6,7.6,7.6,0,0,0-.9-2.8,7,7,0,0,0-2-2.2,5.8,5.8,0,0,0-3.3-.9,5.4,5.4,0,0,0-3.3.9,6,6,0,0,0-2,2.2,10.5,10.5,0,0,0-1,2.8A12.8,12.8,0,0,0,289.4,23.7Z"/><path class="cls-1" d="M330.8,35H327V21.2a7.3,7.3,0,0,0-1-4.4c-.7-1-1.9-1.5-3.8-1.5l-1.8.3a5.2,5.2,0,0,0-1.9,1.1,8.4,8.4,0,0,0-1.6,2.3,9.9,9.9,0,0,0-.6,3.7V35h-3.8V12.5h3.6v3.2h.1l.8-1.1,1.4-1.3,2-1a6.8,6.8,0,0,1,2.6-.4l2.7.3a6.4,6.4,0,0,1,2.5,1.2,6.5,6.5,0,0,1,1.9,2.4,8.8,8.8,0,0,1,.7,3.9Z"/><path class="cls-1" d="M371.5,13.2a6.6,6.6,0,0,0-.8-3,7,7,0,0,0-1.8-2,10.1,10.1,0,0,0-2.4-1,12.4,12.4,0,0,0-2.7-.3l-2.2.2a6.3,6.3,0,0,0-2.3.8,5.5,5.5,0,0,0-1.8,1.6,4.7,4.7,0,0,0-.7,2.8,4.3,4.3,0,0,0,.3,1.7,3.1,3.1,0,0,0,.9,1.1,4.1,4.1,0,0,0,1.1.7l1.3.4,8.8,2a18.3,18.3,0,0,1,2.8,1,7.6,7.6,0,0,1,2.2,1.7,5.5,5.5,0,0,1,1.5,2.4,8,8,0,0,1,.5,3.2,7.9,7.9,0,0,1-1.1,4.5,8.9,8.9,0,0,1-2.9,2.9,13.2,13.2,0,0,1-3.9,1.5,22,22,0,0,1-7.8.1,13.8,13.8,0,0,1-2.6-.7,7.7,7.7,0,0,1-1.8-1,4,4,0,0,1-1.2-1,8.7,8.7,0,0,1-2.6-3.7,13.1,13.1,0,0,1-.6-4.1h3.9a7.2,7.2,0,0,0,.8,3.5,6.1,6.1,0,0,0,2,2.2,6.6,6.6,0,0,0,2.7,1.2,15.3,15.3,0,0,0,3,.3,12.3,12.3,0,0,0,2.6-.2,7.7,7.7,0,0,0,2.6-.7,6.5,6.5,0,0,0,2.1-1.6,4.1,4.1,0,0,0,.8-2.7,6,6,0,0,0-.3-2,3,3,0,0,0-1.1-1.4,7.5,7.5,0,0,0-2-1.1l-3.2-.9-6.3-1.5-1.9-.6a5.7,5.7,0,0,1-2.1-1.2,6.3,6.3,0,0,1-1.8-2.1,6.7,6.7,0,0,1-.7-3.3,10.3,10.3,0,0,1,.6-3.5,7.7,7.7,0,0,1,1.9-3.1,7.8,7.8,0,0,1,3.3-2.1,11.4,11.4,0,0,1,4.8-.9,16,16,0,0,1,6.4,1.1A9.7,9.7,0,0,1,373.3,7a6.5,6.5,0,0,1,1.6,3.2,18.7,18.7,0,0,1,.5,3Z"/><path class="cls-1" d="M397.2,20.1a6.7,6.7,0,0,0-1.7-3.6,5.1,5.1,0,0,0-3.7-1.2,5.4,5.4,0,0,0-2.9.7,6.1,6.1,0,0,0-1.9,2,8.1,8.1,0,0,0-1.1,2.7,15.1,15.1,0,0,0,0,6,6.6,6.6,0,0,0,.9,2.8,5.2,5.2,0,0,0,1.8,2.1,6.3,6.3,0,0,0,3.2.8,4.9,4.9,0,0,0,3.4-1.4,7.2,7.2,0,0,0,2-4h3.6a11.1,11.1,0,0,1-.7,2.9,8.8,8.8,0,0,1-1.6,2.8,9.7,9.7,0,0,1-2.7,2.1,10,10,0,0,1-4.1.8,11.8,11.8,0,0,1-4.3-.8,9,9,0,0,1-3.1-2.3,11.5,11.5,0,0,1-2-3.6,13.3,13.3,0,0,1-.7-4.5,15.3,15.3,0,0,1,.7-4.9,10.6,10.6,0,0,1,1.9-4,8.8,8.8,0,0,1,3.4-2.6,10,10,0,0,1,4.8-1,8.4,8.4,0,0,1,3.7.7,7.3,7.3,0,0,1,2.6,1.9,11.7,11.7,0,0,1,1.5,2.7,13.6,13.6,0,0,1,.6,2.9Z"/><path class="cls-1" d="M425.1,35h-3.8V20.3a12.5,12.5,0,0,0-.2-2.1,3.5,3.5,0,0,0-.7-1.5,3.1,3.1,0,0,0-1.4-1.1,6.9,6.9,0,0,0-2.2-.3,9.1,9.1,0,0,0-2.3.3,6.3,6.3,0,0,0-2,1.3,5.3,5.3,0,0,0-1.4,2.3,9.1,9.1,0,0,0-.6,3.5V35h-3.7V4.2h3.7V15.5h.1l1-1.1a4.1,4.1,0,0,1,1.4-1.2,5.1,5.1,0,0,1,1.8-.9,6.1,6.1,0,0,1,2.4-.4,12.4,12.4,0,0,1,2.7.3,5.8,5.8,0,0,1,2.5,1.2,6.5,6.5,0,0,1,1.9,2.4,8.7,8.7,0,0,1,.8,3.9Z"/><path class="cls-1" d="M431.2,23.7a12.9,12.9,0,0,1,.7-4.3,10.5,10.5,0,0,1,1.9-3.8,9.4,9.4,0,0,1,3.2-2.7,9.9,9.9,0,0,1,4.7-1,9.5,9.5,0,0,1,4.6,1,10.9,10.9,0,0,1,3.3,2.7,12.3,12.3,0,0,1,1.9,3.8,15.9,15.9,0,0,1,.6,4.3,15.4,15.4,0,0,1-.6,4.3,12.9,12.9,0,0,1-1.9,3.9,10.9,10.9,0,0,1-3.3,2.7,10.8,10.8,0,0,1-4.6,1,11.2,11.2,0,0,1-4.7-1,9.4,9.4,0,0,1-3.2-2.7,10.9,10.9,0,0,1-1.9-3.9A12.5,12.5,0,0,1,431.2,23.7Zm3.9,0a13,13,0,0,0,.3,2.6,8.5,8.5,0,0,0,1,2.8,5.5,5.5,0,0,0,2,2.3,5.4,5.4,0,0,0,3.3.9,5.8,5.8,0,0,0,3.3-.9,7.4,7.4,0,0,0,2-2.3,8.4,8.4,0,0,0,.9-2.8,13,13,0,0,0,.3-2.6,13.8,13.8,0,0,0-.3-2.6,10.1,10.1,0,0,0-.9-2.8,7,7,0,0,0-2-2.2,5.8,5.8,0,0,0-3.3-.9,5.4,5.4,0,0,0-3.3.9,5.3,5.3,0,0,0-2,2.2,10.5,10.5,0,0,0-1,2.8A13.8,13.8,0,0,0,435.1,23.7Z"/><path class="cls-1" d="M457.1,23.7a15.9,15.9,0,0,1,.6-4.3,12.5,12.5,0,0,1,2-3.8,9.4,9.4,0,0,1,3.2-2.7,9.9,9.9,0,0,1,4.7-1,9.5,9.5,0,0,1,4.6,1,10.9,10.9,0,0,1,3.3,2.7,12.3,12.3,0,0,1,1.9,3.8,15.9,15.9,0,0,1,.6,4.3,15.4,15.4,0,0,1-.6,4.3,12.9,12.9,0,0,1-1.9,3.9,10.9,10.9,0,0,1-3.3,2.7,10.8,10.8,0,0,1-4.6,1,11.2,11.2,0,0,1-4.7-1,9.4,9.4,0,0,1-3.2-2.7,13.1,13.1,0,0,1-2-3.9A15.4,15.4,0,0,1,457.1,23.7Zm3.9,0a13,13,0,0,0,.3,2.6,8.5,8.5,0,0,0,1,2.8,5.5,5.5,0,0,0,2,2.3,5.4,5.4,0,0,0,3.3.9,5.8,5.8,0,0,0,3.3-.9,7.4,7.4,0,0,0,2-2.3,11.5,11.5,0,0,0,.9-2.8,13,13,0,0,0,.3-2.6,13.8,13.8,0,0,0-.3-2.6,15.2,15.2,0,0,0-.9-2.8,7,7,0,0,0-2-2.2,5.8,5.8,0,0,0-3.3-.9,5.4,5.4,0,0,0-3.3.9,5.3,5.3,0,0,0-2,2.2,10.5,10.5,0,0,0-1,2.8A13.8,13.8,0,0,0,461,23.7Z"/><path class="cls-1" d="M488.1,35h-3.8V4.2h3.8Z"/><path class="cls-2" d="M36,16.5c.3-1.5,7-1.6,6.6.3-1.4,6.5-4.4,12.8-6.7,18.1s-2.8,9.8-1.6,12.5a10.3,10.3,0,0,0,3.1,4.2C39.2,52.9,42,54,46.8,54c17,0,21-14.1,21-20.4C67.8,17.5,57,12.8,51.9,9.8c-1.5-1.6.5-5.6,2-5.7,3.6,0,20.7,8.7,20.7,29.9,0,13.3-11.7,27.3-27.3,27.3-12.2,0-18.1-6-20.1-12.4s.5-12.2,3.4-18.3c1.4-3.1,1.7-3.9,2.6-6.1a59.6,59.6,0,0,0,2.8-8"/><path class="cls-2" d="M46.9,9.5c-1.7,1.1-10.1.9-12.5.1s-.9-7.4.3-8.5,11.6-1.6,13,.6.7,6.8-.8,7.8"/><path class="cls-2" d="M6.3,40.2C6.5,77.1,55.9,79.8,68,59.5c.8-1.6,7.1-1.9,7.7.1C54,94.5,0,79.5,0,40.2,0,21.9,10.5,7.5,27.1,3.9c1.7-.4,3,4.8,1.5,5.6-12.7,3-22.4,17-22.3,30.7"/><line class="cls-3" x1="104.9" y1="46.5" x2="489.1" y2="46.5"/><line class="cls-3" x1="90.1" y1="1.2" x2="90.1" y2="80.9"/><polygon class="cls-1" points="478.1 73.9 478.1 60.6 487.7 75.6 488.9 75.6 488.9 58.5 490.5 56.9 485.5 56.9 487.1 58.5 487.1 69.1 479.4 56.9 474.7 56.9 476.3 58.5 476.3 73.9 474.7 75.5 479.7 75.5 478.1 73.9"/><path class="cls-1" d="M458.9,66.2c0-3.7,1-8.2,4.6-8.2s4.5,4.5,4.5,8.2-1,8.2-4.5,8.2-4.6-4.5-4.6-8.2m-3.5,0c0,4.9,3.1,9.7,8.1,9.7s8-4.8,8-9.7-3.1-9.7-8-9.7-8.1,4.8-8.1,9.7"/><polygon class="cls-1" points="405 73.9 405 60.6 414.6 75.6 415.8 75.6 415.8 58.5 417.4 56.9 412.4 56.9 414 58.5 414 69.1 406.3 56.9 401.6 56.9 403.2 58.5 403.2 73.9 401.6 75.5 406.6 75.5 405 73.9"/><polygon class="cls-1" points="447.5 73.9 447.5 58.4 450.6 58.4 452.8 60.5 452.8 56.9 439.4 56.9 439.4 60.5 441.5 58.4 444.7 58.4 444.7 73.9 443 75.5 449.1 75.5 447.5 73.9"/><path class="cls-1" d="M431.1,65.4l1.6,1.7v6.3a4.5,4.5,0,0,1-2.6.9c-3.6,0-5.7-4.2-5.7-8.1s2.1-8.1,5.7-8.1a2.7,2.7,0,0,1,2.1.9l2.5,2.6V57.7a9.1,9.1,0,0,0-4.6-1.1,9.6,9.6,0,0,0,0,19.2c3.5,0,4.2-.7,5.4-1.4V67.1l1.7-1.7Zm-40.7-8.5,1.6,1.6V73.9l-1.6,1.6h6l-1.6-1.6V58.5l1.6-1.6Zm-16,9.4h7v7.6l-1.6,1.6h6.1l-1.6-1.6V58.5l1.6-1.6h-6.1l1.6,1.6v6.3h-7V58.5l1.6-1.6h-6.1l1.7,1.6V73.9l-1.7,1.6H376l-1.6-1.6Zm-8.5,3.6a3.7,3.7,0,0,0-1.8-3.5l-4.5-2.8a3.6,3.6,0,0,1-1.9-2.9,2.7,2.7,0,0,1,2.8-2.6,1.9,1.9,0,0,1,1.3.3l1.9,2.3,1.8-3.1-3.7-.7a4.6,4.6,0,0,0-1.4-.2,5,5,0,0,0-2.9,9.3l4.5,2.8a2.8,2.8,0,0,1,1.3,2.4,3.1,3.1,0,0,1-3.2,3.3,2.6,2.6,0,0,1-1.5-.4l-2.1-2.6L354.7,75l3.8.7h1.4a5.6,5.6,0,0,0,6-5.9m-22.8-8.6,2.5,7.4h-5.1ZM338.7,74l1.3-3.7h6.1l1.2,3.7-1.6,1.5H352l-1.6-1.6-5.8-17h-1.7l-6,17-1.6,1.6h5Zm-20.1,1.5,3.9-12.1,3.7,12.1H328l5.4-17,1.6-1.6h-5l1.6,1.6-3.8,12.4-3.7-12.4,1.6-1.6h-6.4l1.7,1.6.6,2.1-3.2,10.3-3.7-12.4,1.6-1.6H310l1.6,1.6,5.3,17ZM292,64.3c.8-5,1.4-6.1,2.1-6.1a3,3,0,0,1,2,.9.6.6,0,0,0,.9,0,1.8,1.8,0,0,0,.7-1.2c0-.6-.7-1.1-1.7-1.1a6.5,6.5,0,0,0-4.5,2.2,10.6,10.6,0,0,0-2.1,5.3h-1.6l-.8.9v.2h2.1c-.4,2.3-.7,4.4-1.1,7.6s-1.2,6.4-1.6,6.8a.9.9,0,0,1-.7.3,3.8,3.8,0,0,1-1.2-.5.8.8,0,0,0-.8.2,1.9,1.9,0,0,0-.5,1.2c0,.6.7.8,1.2.8a4.8,4.8,0,0,0,3-1.7c1.1-1.2,2.4-3.8,3.4-8.9l1-5.8,2.6-.2.6-.9Zm-14,.5c1.1,0,1.8,1,1.8,2.9,0,3.5-1.6,6.5-2.6,6.8h-.6c-1.2,0-1.9-1.3-1.9-3.3,0-4,1.7-6,2.5-6.3l.8-.2m.9-1.1a7.1,7.1,0,0,0-3.3,1,8,8,0,0,0-3.7,7c0,1.9.9,4.1,3.7,4.1a7.2,7.2,0,0,0,4.2-1.8,9,9,0,0,0,2.8-6.5,3.5,3.5,0,0,0-3.7-3.8m-32-5.2,4.7,8.4v7L250,75.5h6l-1.5-1.6v-7l4.6-8.4,1.6-1.6h-5l1.5,1.6-3.5,6.6L250,58.5l1.6-1.6h-6.3Zm-9.7,15.4V58.4h3.2l2.1,2.1V56.9H229.1v3.6l2.1-2.1h3.2V73.9l-1.6,1.6h6Zm-18.4-17,1.6,1.6V73.9l-1.6,1.6h6.1l-1.7-1.6V58.5l1.7-1.6Zm-4.3,13a3.7,3.7,0,0,0-1.8-3.5l-4.5-2.8a3.6,3.6,0,0,1-1.9-2.9,2.7,2.7,0,0,1,2.8-2.6,1.9,1.9,0,0,1,1.3.3l1.9,2.3,1.8-3.1-3.7-.7a4.6,4.6,0,0,0-1.4-.2c-2.6,0-5.4,1.7-5.4,5a5.2,5.2,0,0,0,2.5,4.3l4.5,2.8a2.8,2.8,0,0,1,1.3,2.4,3.1,3.1,0,0,1-3.2,3.3,2.6,2.6,0,0,1-1.5-.4l-2.1-2.6L203.3,75l3.8.7h1.4a5.6,5.6,0,0,0,6-5.9M190.2,58.4H192a3.4,3.4,0,0,1,3.2,3.6,3.3,3.3,0,0,1-3.2,3.4h-1.8Zm8.9,15.5L195,66.4a4.8,4.8,0,0,0,3.5-4.4c0-3.2-3.3-5.1-6.5-5.1h-6.3l1.6,1.6V73.9l-1.6,1.6h6.1l-1.6-1.6V67h2l4.5,8.5h4Zm-17.6,1.6V71.9L179.4,74h-5.2V66.3h3.7l1.6,1.6V63.2l-1.6,1.6h-3.7V58.4h5.2l2.1,2.1V56.9H169.8l1.6,1.6V73.9l-1.6,1.6ZM157.7,56.9h-6.3l1.6,1.6,5.2,17H160l5.4-17,1.6-1.6h-5l1.6,1.6-3.8,12.4-3.7-12.4Zm-15.7,0,1.6,1.6V73.9L142,75.5h6l-1.6-1.6V58.5l1.6-1.6Zm-16.8,17V60.6l9.6,15H136V58.5l1.6-1.6h-5l1.6,1.6V69.1l-7.7-12.2h-4.7l1.6,1.6V73.9l-1.6,1.6h5Zm-20.4-3.4c0,3.3,3,5.4,6.2,5.4s6.1-2.1,6.1-5.4v-12l1.7-1.6h-5.1l1.6,1.6v12a3.8,3.8,0,0,1-7.6,0v-12l1.6-1.6h-6.1l1.6,1.6Z"/></g></g></svg>