<svg xmlns="http://www.w3.org/2000/svg" viewBox="0 0 253 51.9"><defs><style>.cls-1{fill:#999;}</style></defs><g id="레이어_2" data-name="레이어 2"><g id="bothell_stacked_large" data-name="bothell stacked large"><path class="cls-1" d="M244.7,46.6V37.2l6.6,10.5h.6V36.3l1.1-1.1h-3.3l1.1,1.1v7.9l-5.7-9h-2.5l1,1.1V46.6l-1,1.1h3.2ZM235,47c-2.5,0-3.3-3-3.3-5.5s.8-5.6,3.3-5.6,3.5,3,3.5,5.6S237.6,47,235,47m-5-5.5c0,3.1,1.8,6.5,5,6.5s5.1-3.4,5.1-6.5-1.8-6.6-5.1-6.6-5,3.4-5,6.6m-5.6,5.2V36.1h2.3l1.4,1.4V35.2h-8.8v2.3l1.3-1.4H223V46.7l-1,1h3.4ZM215.1,42v4.1a2.7,2.7,0,0,1-2.1.9c-2.8,0-4.2-2.8-4.2-5.5s1.8-5.6,4.2-5.6a2,2,0,0,1,1.5.6l1.4,1.4V35.7A5.4,5.4,0,0,0,213,35c-3.4,0-5.8,3.1-5.8,6.5s2.4,6.4,5.8,6.4a5.5,5.5,0,0,0,3.4-.9V42l1-1h-3.3Zm-18.6,4.6V37.2l6.6,10.5h.5V36.3l1.1-1.1h-3.3l1.1,1.1v7.9l-5.6-9h-2.6l1,1.1V46.6l-1,1.1h3.2Zm-9-11.4,1,1V46.7l-1,1h3.3l-1-1V36.2l1-1Zm-11.2,6.2h5.3v5.3l-1,1H184l-1-1V36.2l1-1h-3.4l1,1v4.3h-5.3V36.2l1-1H174l.9,1V46.7l-.9,1h3.3l-1-1Zm-5.6,2.8a2.8,2.8,0,0,0-1.2-2.4L166.9,40a2.9,2.9,0,0,1-1.3-2.2,1.8,1.8,0,0,1,1.8-1.8l.8.2,1.1,1.2,1.2-1.8-2.5-.4h-.6a3.2,3.2,0,0,0-3.2,3.1,3.8,3.8,0,0,0,1.6,2.9l2.6,1.8a2.1,2.1,0,0,1,.9,1.8,2.2,2.2,0,0,1-2.1,2.3l-.9-.2-1.2-1.4L164,47.3l2.4.5h.8a3.6,3.6,0,0,0,3.5-3.7M156.6,38l1.8,5.2h-3.6Zm-3,8.7.9-2.6h4.2l.8,2.6-.9,1h3.5l-1-1-3.9-11.5h-.6l-4,11.5-1,1h3Zm-13.3,1,2.8-9.1,2.8,9.1h.7l3.6-11.5,1-1h-3l1,1-2.7,8.6-2.6-8.6,1-1h-3.5l1,1,.2.8-2.4,7.8-2.5-8.6.9-1h-3.5l1,1,3.5,11.5Zm-18.6-7.5-.5.5h1.5c-.2,1.6-.4,3-.8,5.2s-.8,4.5-1.2,4.8h-.4l-.8-.2a.4.4,0,0,0-.5.1c-.1.2-.3.4-.3.6s.5.5.8.5a2.7,2.7,0,0,0,1.9-1.2c.6-.7,1.4-2.4,2.1-6.4.1-.8.3-1.5.6-3.5h1.8l.4-.5h-2.1c.5-3.3,1-4.3,1.7-4.3a2.5,2.5,0,0,1,1.4.6c.1.2.3.2.5,0a1.1,1.1,0,0,0,.3-.6.9.9,0,0,0-1-.8,4,4,0,0,0-2.9,1.5,8.5,8.5,0,0,0-1.4,3.6Zm-8,4.6c0-2.6,1.3-4,1.9-4.2l.6-.2c.9,0,1.4.7,1.4,2.1s-1.2,4.3-1.9,4.6h-.6c-1,0-1.4-1-1.4-2.4m3-5a4.9,4.9,0,0,0-1.9.6,5.6,5.6,0,0,0-2.5,4.9c0,1.2.6,2.6,2.2,2.6a4.6,4.6,0,0,0,2.7-1.2,6.7,6.7,0,0,0,1.8-4.5,2.2,2.2,0,0,0-2.3-2.4M96.3,36.2l3.1,5.7v4.8l-1,1h3.4l-1-1V41.9l3.3-5.7,1-1H102l1,1-2.7,4.7-2.5-4.7,1-1H95.3ZM89.7,46.7V36.1H92l1.4,1.4V35.2H84.6v2.3l1.3-1.4h2.4V46.7l-1,1h3.4ZM78.3,35.2l1,1V46.7l-1,1h3.4l-1-1V36.2l1-1Zm-3.7,9a2.8,2.8,0,0,0-1.1-2.4L70.9,40a3.1,3.1,0,0,1-1.4-2.2A1.8,1.8,0,0,1,71.3,36l.9.2,1.1,1.2,1.1-1.8-2.5-.4h-.6a3.2,3.2,0,0,0-3.1,3.1,3.5,3.5,0,0,0,1.6,2.9l2.5,1.8a2.1,2.1,0,0,1,.9,1.8,2.1,2.1,0,0,1-2,2.3l-.9-.2-1.2-1.4L68,47.3l2.4.5h.8a3.6,3.6,0,0,0,3.4-3.7M58.5,36.1h1.6a2.5,2.5,0,0,1,2.4,2.5,2.3,2.3,0,0,1-2.4,2.3H58.5Zm0,10.6V41.9h1.9l3.1,5.8h2l-.9-1-2.8-5.1a3.3,3.3,0,0,0,2.3-3c0-2.1-2-3.4-4-3.4H56.2l.9,1V46.7l-.9,1h3.3Zm-5.6,1V45.4l-1.4,1.4H47.7V41.5h2.9l1,1V39.6l-1,1H47.7V36.1h3.8l1.4,1.4V35.2H45.4l1,1V46.7l-1,1ZM36.6,35.2H33.1l1,1,3.5,11.5h.7l3.6-11.5,1-1h-3l1,1-2.7,8.6-2.6-8.6Zm-9.7,0,1,1V46.7l-1,1h3.4l-1-1V36.2l1-1ZM15.2,46.6V37.2l6.7,10.5h.5V36.3l1.1-1.1H20.2l1.1,1.1v7.9l-5.7-9H13l1.1,1.1V46.6L13,47.7h3.3ZM1.1,44.4A3.7,3.7,0,0,0,5,48a3.9,3.9,0,0,0,4-3.6V36.3l1.1-1.1H6.8l1.1,1.1v8.1A2.6,2.6,0,0,1,5.3,47a2.7,2.7,0,0,1-2.7-2.6V36.3l1-1.1H0l1.1,1.1Z"/><polygon class="cls-1" points="109.7 0 109.7 4.2 112.3 4.2 117 22.8 123.5 22.8 126.5 11.1 129.5 22.8 136 22.8 140.9 4.2 143.4 4.2 143.4 0 134.5 0 134.5 4.2 137.4 4.2 134.2 16.3 130.2 0 126.1 0 121.7 16.4 118.6 4.2 121.8 4.2 121.8 0 109.7 0"/></g></g></svg>